<svg width="18" height="18" viewBox="0 0 18 18" fill="none" xmlns="http://www.w3.org/2000/svg">
<path d="M16.4121 5.0796C16.4123 5.06765 16.4091 5.05585 16.4028 5.04539C16.3966 5.03494 16.3874 5.0262 16.3763 5.02004L9.03681 1.06802C9.02556 1.06185 9.01271 1.05859 8.99963 1.05859C8.98654 1.05859 8.97369 1.06185 8.96244 1.06802L1.62505 5.06438C1.57642 5.09085 1.57642 5.15703 1.62505 5.1835L8.96387 9.13552C8.97525 9.14149 8.98816 9.14452 9.00125 9.14429C9.01434 9.14406 9.02711 9.14057 9.03824 9.1342L16.3763 5.13916C16.3874 5.13301 16.3966 5.12427 16.4028 5.11381C16.4091 5.10336 16.4123 5.09156 16.4121 5.0796ZM16.4121 6.97422C16.4121 6.92194 16.3513 6.88819 16.302 6.91466L9.88926 10.3465C9.87788 10.3525 9.86839 10.3612 9.86174 10.3716C9.85509 10.3821 9.85151 10.394 9.85136 10.4061L9.85136 12.4688C9.85136 12.5217 9.91429 12.5548 9.96364 12.5284L16.3756 9.09648C16.3868 9.09036 16.396 9.08164 16.4024 9.07119C16.4088 9.06074 16.4122 9.04893 16.4121 9.03692L16.4121 6.97488L16.4121 6.97422ZM16.4121 10.8726C16.4121 10.8607 16.4087 10.849 16.4023 10.8387C16.3958 10.8283 16.3865 10.8198 16.3753 10.8139C16.3642 10.8079 16.3515 10.8049 16.3386 10.805C16.3257 10.8051 16.3131 10.8083 16.302 10.8144L9.00105 14.728L1.70014 10.8144C1.68905 10.8083 1.67642 10.8051 1.66353 10.805C1.65064 10.8049 1.63795 10.8079 1.62676 10.8139C1.61557 10.8198 1.60628 10.8283 1.59982 10.8387C1.59336 10.849 1.58998 10.8607 1.59001 10.8726L1.59001 12.9393C1.58983 12.9511 1.59305 12.9627 1.59934 12.9729C1.60562 12.9832 1.61475 12.9917 1.62577 12.9975L8.96458 16.9317C8.97562 16.9378 8.98822 16.9409 9.00105 16.9409C9.01389 16.9409 9.02649 16.9378 9.03753 16.9317L16.3756 12.9975C16.3868 12.9917 16.396 12.9833 16.4025 12.973C16.4089 12.9628 16.4122 12.9511 16.4121 12.9393L16.4121 10.8726ZM8.04491 10.3498C8.04507 10.3378 8.0417 10.326 8.03515 10.3156C8.02859 10.3052 8.01911 10.2967 8.00772 10.2909L1.70014 6.91532C1.6508 6.88885 1.59001 6.92194 1.59001 6.97488L1.59001 9.03758C1.58987 9.04952 1.5931 9.0613 1.59936 9.07174C1.60563 9.08218 1.61473 9.09094 1.62577 9.09714L7.93334 12.4721C7.94459 12.4782 7.95739 12.4814 7.97042 12.4814C7.98345 12.4815 7.99625 12.4783 8.00752 12.4722C8.01879 12.4662 8.02812 12.4574 8.03457 12.447C8.04101 12.4365 8.04433 12.4246 8.04419 12.4125L8.04419 10.3492L8.04491 10.3498Z" fill="white"/>
</svg>
