<svg width="60" height="60" viewBox="0 0 60 60" fill="none" xmlns="http://www.w3.org/2000/svg">
<path d="M8.06389 35.383C7.93519 34.9027 8.00257 34.3909 8.25121 33.9603C8.49985 33.5296 8.90938 33.2154 9.38972 33.0867C9.87006 32.9579 10.3818 33.0253 10.8125 33.274C11.2432 33.5226 11.5574 33.9321 11.6861 34.4125C12.7723 38.4687 15.1886 42.0429 18.5479 44.5623C21.9071 47.0818 26.0149 48.4007 30.213 48.3078C34.4111 48.2149 38.4564 46.7154 41.7009 44.0497C44.9454 41.384 47.2011 37.7064 48.1067 33.6061C49.0123 29.5058 48.5154 25.2202 46.6954 21.436C44.8755 17.6518 41.838 14.588 38.0696 12.7356C34.3012 10.8831 30.02 10.3492 25.9121 11.2195C21.8041 12.0897 18.1072 14.3137 15.4137 17.5351C15.0955 17.9151 14.6398 18.1536 14.1462 18.1986C13.6527 18.2435 13.1614 18.0912 12.7798 17.775C12.5887 17.6176 12.4306 17.4239 12.3147 17.205C12.1989 16.9862 12.1275 16.7466 12.1047 16.5C12.082 16.2534 12.1083 16.0048 12.1822 15.7684C12.256 15.5321 12.376 15.3127 12.5351 15.123C15.7671 11.2576 20.203 8.58885 25.1322 7.54441C30.0614 6.49997 35.1985 7.14025 39.7204 9.36267C44.2424 11.5851 47.8876 15.261 50.0719 19.8015C52.2563 24.342 52.8533 29.4843 51.7675 34.4045C50.6817 39.3247 47.9758 43.7381 44.0833 46.9375C40.1909 50.137 35.3372 51.9373 30.2998 52.0501C25.2625 52.1629 20.3331 50.5816 16.3013 47.5596C12.2696 44.5376 9.36886 40.2497 8.06389 35.383Z" fill="#767DC1"/>
<path d="M8.58691 17.8761L9.95469 8.60145C10.0272 8.10949 10.2923 7.6665 10.6914 7.36994C11.0906 7.07337 11.5912 6.94752 12.0832 7.02007C12.5751 7.09262 13.0181 7.35763 13.3147 7.7568C13.6113 8.15597 13.7371 8.6566 13.6646 9.14856L12.5703 16.5683L19.9901 17.6625C20.482 17.7351 20.925 18.0001 21.2216 18.3993C21.5182 18.7984 21.644 19.2991 21.5715 19.791C21.4989 20.283 21.2339 20.726 20.8347 21.0225C20.4356 21.3191 19.9349 21.445 19.443 21.3724L10.1683 20.0046C9.67633 19.9321 9.23334 19.6671 8.93677 19.2679C8.64021 18.8687 8.51436 18.3681 8.58691 17.8761Z" fill="#767DC1"/>
<path d="M35.1781 38.2465C35.4249 38.2479 35.6695 38.2007 35.8979 38.1073C36.1264 38.014 36.3341 37.8765 36.5093 37.7028C36.6851 37.5285 36.8246 37.3211 36.9198 37.0926C37.015 36.8641 37.064 36.619 37.064 36.3715C37.064 36.124 37.015 35.8789 36.9198 35.6504C36.8246 35.422 36.6851 35.2146 36.5093 35.0403L31.4281 29.9778V21.3715C31.4281 20.8742 31.2306 20.3973 30.8789 20.0457C30.5273 19.6941 30.0504 19.4965 29.5531 19.4965C29.0558 19.4965 28.5789 19.6941 28.2273 20.0457C27.8756 20.3973 27.6781 20.8742 27.6781 21.3715V30.7465C27.6767 30.9933 27.724 31.2379 27.8173 31.4663C27.9106 31.6948 28.0481 31.9026 28.2218 32.0778L33.8468 37.7028C34.022 37.8765 34.2298 38.014 34.4583 38.1073C34.6867 38.2007 34.9313 38.2479 35.1781 38.2465Z" fill="#767DC1"/>
</svg>
