<svg width="21" height="20" viewBox="0 0 21 20" xmlns="http://www.w3.org/2000/svg">
    <g clip-path="url(#clip0_298_2780)">
        <path
            d="M17.756 3.74342C16.4813 3.16789 15.1144 2.74388 13.6851 2.50102C13.6591 2.49633 13.6331 2.50804 13.6197 2.53148C13.4439 2.83914 13.2491 3.24052 13.1128 3.55599C11.5755 3.32954 10.0462 3.32954 8.54046 3.55599C8.40407 3.2335 8.20226 2.83914 8.02567 2.53148C8.01227 2.50883 7.98626 2.49712 7.96024 2.50102C6.53179 2.7431 5.16483 3.16712 3.8893 3.74342C3.87826 3.7481 3.8688 3.75592 3.86252 3.76607C1.26969 7.57759 0.559404 11.2954 0.907845 14.9672C0.909422 14.9852 0.91967 15.0023 0.93386 15.0133C2.64454 16.2494 4.30162 16.9998 5.92793 17.4973C5.95395 17.5051 5.98154 17.4958 5.9981 17.4746C6.3828 16.9577 6.72573 16.4127 7.01976 15.8394C7.03711 15.8058 7.02055 15.766 6.98508 15.7528C6.44114 15.5498 5.9232 15.3022 5.42497 15.0211C5.38556 14.9984 5.3824 14.943 5.41866 14.9164C5.5235 14.8391 5.62838 14.7587 5.7285 14.6775C5.7466 14.6627 5.77185 14.6595 5.79314 14.6688C9.06626 16.1393 12.6098 16.1393 15.8444 14.6688C15.8656 14.6588 15.8909 14.6618 15.9098 14.6767C16.0099 14.7579 16.1148 14.8391 16.2204 14.9164C16.2566 14.943 16.2543 14.9984 16.2149 15.0211C15.7166 15.3077 15.1987 15.5498 14.6539 15.752C14.6185 15.7653 14.6027 15.8058 14.62 15.8394C14.9204 16.4118 15.2634 16.9569 15.6409 17.4738C15.6567 17.4958 15.6851 17.5051 15.7111 17.4973C17.3453 16.9998 19.0024 16.2494 20.713 15.0133C20.728 15.0023 20.7375 14.9859 20.7391 14.968C21.1561 10.723 20.0406 7.03567 17.782 3.76684C17.7765 3.75592 17.7671 3.7481 17.756 3.74342ZM7.50855 12.7315C6.52311 12.7315 5.71114 11.8413 5.71114 10.748C5.71114 9.65475 6.50736 8.76458 7.50855 8.76458C8.51759 8.76458 9.3217 9.66258 9.30595 10.748C9.30595 11.8413 8.5097 12.7315 7.50855 12.7315ZM14.1541 12.7315C13.1688 12.7315 12.3568 11.8413 12.3568 10.748C12.3568 9.65475 13.1529 8.76458 14.1541 8.76458C15.1632 8.76458 15.9673 9.66258 15.9515 10.748C15.9515 11.8413 15.1632 12.7315 14.1541 12.7315Z" />
    </g>
    <defs>
        <clipPath id="clip0_298_2780">
            <rect width="20" height="20" fill="white" transform="translate(0.825195)" />
        </clipPath>
    </defs>
</svg>