<svg width="22" height="22" viewBox="0 0 22 22" fill="none" xmlns="http://www.w3.org/2000/svg">
<path d="M20.8226 19.98L15.9623 15.1197C17.2661 13.6208 18.0554 11.6652 18.0554 9.52772C18.0554 4.82262 14.2284 1 9.52772 1C4.82262 1 1 4.82705 1 9.52772C1 14.2284 4.82705 18.0554 9.52772 18.0554C11.6652 18.0554 13.6208 17.2661 15.1197 15.9623L19.98 20.8226C20.0953 20.9379 20.2506 21 20.4013 21C20.5521 21 20.7073 20.9424 20.8226 20.8226C21.0532 20.592 21.0532 20.2106 20.8226 19.98ZM2.1929 9.52772C2.1929 5.48337 5.48337 2.19734 9.52328 2.19734C13.5676 2.19734 16.8537 5.48781 16.8537 9.52772C16.8537 13.5676 13.5676 16.8625 9.52328 16.8625C5.48337 16.8625 2.1929 13.5721 2.1929 9.52772Z" fill="white"/>
</svg>
