<svg width="19" height="19" viewBox="0 0 19 19" xmlns="http://www.w3.org/2000/svg">
    <path fill-rule="evenodd" clip-rule="evenodd"
        d="M9.5 0C4.25125 0 0 4.35878 0 9.74029C0 14.0504 2.71937 17.6908 6.49562 18.9814C6.97062 19.0666 7.14875 18.7744 7.14875 18.5187C7.14875 18.2874 7.13688 17.5203 7.13688 16.7046C4.75 17.1551 4.1325 16.108 3.9425 15.5601C3.83563 15.2801 3.3725 14.4156 2.96875 14.1843C2.63625 14.0017 2.16125 13.5512 2.95687 13.539C3.705 13.5268 4.23938 14.2452 4.4175 14.5374C5.2725 16.0106 6.63813 15.5966 7.18438 15.341C7.2675 14.7078 7.51687 14.2817 7.79 14.0382C5.67625 13.7947 3.4675 12.9546 3.4675 9.22893C3.4675 8.16967 3.83563 7.29304 4.44125 6.61122C4.34625 6.36772 4.01375 5.36934 4.53625 4.03005C4.53625 4.03005 5.33188 3.77436 7.14875 5.02843C7.90875 4.80927 8.71625 4.69969 9.52375 4.69969C10.3313 4.69969 11.1388 4.80927 11.8988 5.02843C13.7156 3.76219 14.5112 4.03005 14.5112 4.03005C15.0338 5.36934 14.7013 6.36772 14.6063 6.61122C15.2119 7.29304 15.58 8.15749 15.58 9.22893C15.58 12.9668 13.3594 13.7947 11.2456 14.0382C11.59 14.3426 11.8869 14.927 11.8869 15.8401C11.8869 17.1429 11.875 18.19 11.875 18.5187C11.875 18.7744 12.0531 19.0788 12.5281 18.9814C16.2806 17.6908 19 14.0382 19 9.74029C19 4.35878 14.7488 0 9.5 0Z" />
</svg>