<svg width="16" height="17" viewBox="0 0 16 17" fill="none" xmlns="http://www.w3.org/2000/svg">
    <path
        d="M6.66667 2.5V3.83333H3.33333V13.1667H12.6667V9.83333H14V13.8333C14 14.0101 13.9298 14.1797 13.8047 14.3047C13.6797 14.4298 13.5101 14.5 13.3333 14.5H2.66667C2.48986 14.5 2.32029 14.4298 2.19526 14.3047C2.07024 14.1797 2 14.0101 2 13.8333V3.16667C2 2.98986 2.07024 2.82029 2.19526 2.69526C2.32029 2.57024 2.48986 2.5 2.66667 2.5H6.66667ZM11.724 3.83333H8.66667V2.5H14V7.83333H12.6667V4.776L8 9.44267L7.05733 8.5L11.724 3.83333Z"
        fill="#37AB45" />
</svg>