<svg width="81" height="81" viewBox="0 0 81 81" fill="none" xmlns="http://www.w3.org/2000/svg">
<path d="M58.6986 67.3744C59.4446 68.6353 59.0243 70.3164 57.7214 71.0257C56.4394 71.7717 54.8161 71.3304 54.0911 70.0485C53.3083 68.7876 53.7654 67.1432 55.0263 66.3972C56.3502 65.6565 57.9526 66.1135 58.6986 67.3744ZM42.9271 73.0747C42.9271 74.5299 41.724 75.7488 40.211 75.7488C38.7557 75.7488 37.5369 74.5614 37.5369 73.0747V71.1991C37.5369 69.7071 38.7609 68.5197 40.211 68.5197C41.703 68.5197 42.9271 69.707 42.9271 71.1991V73.0747ZM26.4096 70.0537C25.6478 71.3724 24.0034 71.7927 22.7373 71.0467C21.4397 70.3164 20.9772 68.6773 21.7444 67.3744L23.7355 63.8912C24.5025 62.6093 26.1469 62.168 27.4446 62.8983C28.7055 63.6442 29.1678 65.3098 28.4008 66.5706L26.4096 70.0537ZM13.5959 59.2312C12.2983 59.9563 10.6329 59.5202 9.92362 58.2383C9.16182 56.9774 9.59784 55.3121 10.8798 54.5661L16.2333 51.4664C17.5152 50.7571 19.1753 51.1565 19.9056 52.4593C20.6305 53.7202 20.1892 55.3856 18.9126 56.1316L13.5959 59.2312ZM7.90091 43.4176C6.40888 43.4176 5.22681 42.2145 5.22681 40.7435C5.22681 39.2516 6.40888 38.0485 7.90091 38.0485H16.2385C17.7305 38.0485 18.9126 39.2516 18.9126 40.7226C18.9126 42.2145 17.7305 43.4176 16.2385 43.4176H7.90091ZM10.885 26.8792C9.58209 26.1542 9.16182 24.5097 9.92882 23.2279C10.6381 21.9302 12.2982 21.4888 13.6011 22.2349L22.6583 27.4938C23.9403 28.2241 24.3606 29.8632 23.6513 31.1293C22.8895 32.427 21.2451 32.8474 19.9842 32.1223L10.885 26.8792ZM21.7443 14.0707L28.054 25.0246C28.821 26.3065 30.4655 26.7635 31.742 26.0018C33.024 25.2768 33.4442 23.6113 32.6983 22.3295L26.3676 11.3966C25.6426 10.1305 23.9981 9.67348 22.7373 10.4195C21.4344 11.1654 21.0141 12.8098 21.7443 14.0707ZM37.5369 8.4125C37.5369 6.95716 38.7609 5.71729 40.211 5.71729C41.703 5.71729 42.9271 6.92567 42.9271 8.4125V21.0318C42.9271 22.5238 41.724 23.727 40.211 23.7479C38.7557 23.7479 37.5369 22.5658 37.5369 21.0318V8.4125ZM54.0544 11.3966C54.8214 10.099 56.4449 9.6734 57.7267 10.4036C59.0243 11.1287 59.4867 12.7731 58.7196 14.0759L52.3941 25.0299C51.6796 26.3065 49.9985 26.7636 48.7219 26.0228C47.4399 25.2768 47.0197 23.6113 47.7446 22.3295L54.0544 11.3966ZM66.9049 22.2349L55.93 28.5604C54.648 29.2853 54.2067 30.9297 54.937 32.2326C55.6988 33.4935 57.3432 33.9138 58.6093 33.2098L69.5843 26.8844C70.8452 26.1593 71.3074 24.515 70.5404 23.2331C69.8101 21.9301 68.1605 21.4679 66.9049 22.2349ZM72.542 38.0484C74.0498 38.0484 75.2372 39.2515 75.2161 40.7435C75.2161 42.2145 74.0498 43.4176 72.542 43.4176H59.9069C58.4517 43.4176 57.2276 42.2145 57.2276 40.7225C57.2276 39.2515 58.4517 38.0484 59.9069 38.0484H72.542Z" fill="white"/>
</svg>
