<svg fill="white" xmlns="http://www.w3.org/2000/svg" viewBox="0 0 1000 1000" xmlSpace="preserve" width="22">
    <path
        d="M520.9 12.1c-7.09 1.53-18.21 4.98-24.92 7.86-28.56 12.08-51.18 17.06-108.11 23.96-42.55 5.18-51.95 7.09-61.72 12.65-14.95 8.63-19.93 25.11-12.46 40.64 1.92 3.83 22.62 40.44 46 81.27 23.39 40.64 42.55 74.37 42.55 74.95 0 .58-5.37 4.03-11.88 7.67-102.16 57.3-201.45 221.19-233.27 385.27-8.43 42.94-10.35 63.45-10.35 102.93 0 61.72 10.54 102.36 36.04 141.08 36.42 54.63 98.91 84.15 204.14 96.03 42.74 4.79 183.44 4.79 226.18 0 90.28-10.16 142.99-30.67 183.06-71.11 30.09-30.28 47.34-67.66 54.82-118.46 3.45-22.62 2.88-78.21-.96-106.96-16.1-121.91-68.43-248.03-140.69-339.27-28.56-36.04-69-72.26-99.48-89.51-6.71-3.64-12.08-7.09-12.08-7.67 0-.57 20.89-37.38 46.39-81.85 44.28-76.67 46.58-81.27 46.58-90.67 0-7.86-1.15-11.5-5.75-18.21-11.12-15.72-51.75-37.19-89.13-46.96-22.82-5.94-56.36-7.47-74.96-3.64zm57.7 45.43 16.29 4.6-15.33 1.53c-21.85 2.11-49.84 7.86-62.87 12.84-6.33 2.3-16.68 8.05-23 12.65-20.7 14.76-30.86 18.78-47.35 18.78-8.05 0-19.36-1.53-25.88-3.45-12.84-3.83-39.87-14.76-38.91-15.72.38-.19 12.27-1.92 26.45-3.64 48.69-5.75 73.99-12.08 93.54-23.39 13.99-8.24 22.81-10.16 42.55-9.58 11.89.59 23.96 2.31 34.51 5.38zm51.75 50.6c0 1.15-51.37 91.05-58.85 102.93l-4.41 7.28h-66.9c-51.18 0-67.28-.57-68.81-2.49-3.45-4.22-44.66-76.67-43.9-77.25.19-.38 6.13 1.34 12.84 3.45 10.35 3.64 17.06 4.22 40.25 4.41 26.26 0 28.75-.38 44.09-5.94 9.01-3.07 21.47-9.01 27.41-13.03 15.91-10.54 34.12-15.53 70.35-18.98 11.7-1.15 47.93-1.34 47.93-.38zM444.23 290.42c.19.19-5.75 6.9-13.61 14.57-7.86 7.67-19.74 21.28-26.26 30.09-12.65 17.06-29.9 50.41-28.37 54.44.77 2.11 37.38 15.91 38.53 14.38.19-.19 4.03-7.86 8.43-16.87 9.78-19.93 28.75-44.09 47.15-59.8 16.68-14.57 46.58-34.12 51.94-34.12 2.11 0 13.03-1.34 24.15-3.26l20.32-3.07 13.23 7.09c18.59 10.16 40.44 26.26 58.46 42.94 53.86 50.03 107.34 138.97 138.78 230.4 22.23 64.98 33.54 126.12 33.54 182.1 0 63.25-13.8 104.08-46 136.09-23.58 23.58-47.15 36.04-88.56 46.77-42.36 10.92-87.6 14.76-175 14.95-88.36 0-134.18-3.83-176.73-14.95-41.59-10.73-64.98-23.19-88.75-46.77-34.89-34.5-47.73-77.82-45.43-151.23 3.83-120.95 60.95-268.74 141.08-364.58 25.69-30.86 55.4-56.35 85.68-73.6 12.08-7.09 16.29-8.43 20.89-7.48 3.27.57 6.15 1.52 6.53 1.91z">
    </path>
    <path
        d="M482.76 485.74c0 8.82-.57 10.54-3.45 10.54-7.28 0-26.83 6.13-39.68 12.46-25.69 12.46-41.59 33.93-44.85 60.57-5.94 46 21.08 82.42 74.56 100.44l12.46 4.22.57 43.32c.19 23.96-.19 43.51-.77 43.51-.77 0-5.17-2.11-9.58-4.79-9.58-5.75-18.02-16.87-23-31.05-2.88-8.24-4.22-9.97-7.48-9.2-2.11.38-15.72 1.73-30.09 3.07l-26.45 2.3v4.98c.19 8.24 9.01 31.05 16.48 41.98 14.57 20.89 37.38 35.27 66.51 41.59l14.76 3.26v32.2h34.31l.58-16.48.58-16.49 17.44-4.41c22.62-5.75 39.1-14.18 52.9-27.22 19.17-18.4 26.64-36.42 26.64-64.59.19-20.89-3.83-34.31-14.38-48.5-13.42-18.21-41.4-34.12-72.45-41.02l-11.12-2.3v-41.02c0-23.58.77-40.83 1.72-40.83 4.98 0 18.79 13.61 23.19 22.62 5.56 11.5 3.83 11.31 37.38 7.09 12.46-1.53 23.58-2.88 24.53-2.88 2.68 0 0-10.73-5.37-22.43-10.52-23.18-38.7-43.31-67.83-48.67l-13.61-2.3V475.2h-34.5v10.54zm0 92.2v35.46l-4.22-1.15c-7.67-2.3-18.59-10.35-21.28-15.72-7.28-14.38-5.18-32.39 4.98-42.93 5.37-5.37 14.95-10.93 19.17-11.31.77 0 1.35 16.1 1.35 35.65zm50.79 110.79c18.02 8.24 25.68 21.66 23.38 40.83-1.73 15.72-15.91 29.9-34.31 34.31l-5.37 1.15v-40.44c.01-46.01-.95-43.9 16.3-35.85z">
    </path>
</svg>