<svg width="22" height="22" viewBox="0 0 22 22" fill="none" xmlns="http://www.w3.org/2000/svg">
    <g opacity="0.98">
        <g clip-path="url(#clip0_194_4188)">
            <path
                d="M7.68293 1.58149C7.94075 2.1143 7.71301 2.75884 7.1802 3.01665C5.69778 3.72993 4.44309 4.83852 3.54934 6.22641C2.63411 7.64868 2.14856 9.29868 2.14856 11.0002C2.14856 15.8815 6.11887 19.8518 11.0001 19.8518C15.8814 19.8518 19.8517 15.8815 19.8517 11.0002C19.8517 9.29868 19.3661 7.64868 18.4552 6.22212C17.5657 4.83423 16.3068 3.72563 14.8243 3.01235C14.2915 2.75454 14.0638 2.11431 14.3216 1.5772C14.5794 1.04438 15.2197 0.816648 15.7568 1.07446C17.6001 1.95962 19.1599 3.33462 20.2642 5.06196C21.3986 6.83227 22.0001 8.88618 22.0001 11.0002C22.0001 13.9393 20.8572 16.7022 18.7775 18.7776C16.7021 20.8573 13.9392 22.0002 11.0001 22.0002C8.06106 22.0002 5.29817 20.8573 3.22278 18.7776C1.14309 16.6979 0.000122166 13.9393 0.000122201 11.0002C0.000122227 8.88618 0.601685 6.83227 1.74036 5.06196C2.84895 3.33891 4.40872 1.95962 6.24778 1.07446C6.78489 0.820946 7.42512 1.04438 7.68293 1.58149Z"
                fill="#37AB45" />
            <path
                d="M6.81946 10.4292C6.60891 10.2186 6.50579 9.9436 6.50579 9.6686C6.50579 9.3936 6.60891 9.1186 6.81946 8.90806L9.52219 6.20532C9.91751 5.81001 10.4417 5.59517 10.996 5.59517C11.5503 5.59517 12.0788 5.81431 12.4698 6.20532L15.1726 8.90806C15.5937 9.32915 15.5937 10.0081 15.1726 10.4292C14.7515 10.8502 14.0726 10.8502 13.6515 10.4292L12.0659 8.8436L12.0659 14.9495C12.0659 15.5424 11.5847 16.0237 10.9917 16.0237C10.3988 16.0237 9.9175 15.5424 9.9175 14.9495L9.9175 8.83931L8.33196 10.4249C7.91946 10.8459 7.24055 10.8459 6.81946 10.4292Z"
                fill="#37AB45" />
        </g>
    </g>
    <defs>
        <clipPath id="clip0_194_4188">
            <rect width="22" height="22" rx="11" transform="matrix(1.19249e-08 -1 -1 -1.19249e-08 22.0001 22.0002)"
                fill="white" />
        </clipPath>
    </defs>
</svg>