<svg width="22" height="22" viewBox="0 0 22 22" fill="none" xmlns="http://www.w3.org/2000/svg">
    <g opacity="0.98">
        <g clip-path="url(#clip0_194_4193)">
            <path
                d="M14.3171 20.4188C14.0593 19.8859 14.287 19.2414 14.8198 18.9836C16.3022 18.2703 17.5569 17.1617 18.4507 15.7738C19.3659 14.3516 19.8514 12.7016 19.8514 11C19.8514 6.11875 15.8811 2.14844 10.9999 2.14844C6.11863 2.14844 2.14832 6.11875 2.14832 11C2.14832 12.7016 2.63386 14.3516 3.5448 15.7781C4.43425 17.166 5.69324 18.2746 7.17566 18.9879C7.70847 19.2457 7.93621 19.8859 7.67839 20.423C7.42058 20.9559 6.78035 21.1836 6.24324 20.9258C4.39988 20.0406 2.84011 18.6656 1.73582 16.9383C0.60144 15.168 -0.00012207 13.1141 -0.00012207 11C-0.00012207 8.06094 1.14285 5.29805 3.22253 3.22266C5.29792 1.14297 8.06082 0 10.9999 0C13.9389 0 16.7018 1.14297 18.7772 3.22266C20.8569 5.30234 21.9999 8.06094 21.9999 11C21.9999 13.1141 21.3983 15.168 20.2596 16.9383C19.1511 18.6613 17.5913 20.0406 15.7522 20.9258C15.2151 21.1793 14.5749 20.9559 14.3171 20.4188Z"
                fill="#37AB45" />
            <path
                d="M15.1805 11.5711C15.3911 11.7816 15.4942 12.0566 15.4942 12.3316C15.4942 12.6066 15.3911 12.8816 15.1805 13.0922L12.4778 15.7949C12.0825 16.1902 11.5583 16.4051 11.004 16.4051C10.4497 16.4051 9.92117 16.1859 9.53015 15.7949L6.82742 13.0922C6.40632 12.6711 6.40632 11.9922 6.82742 11.5711C7.24851 11.15 7.92742 11.15 8.34851 11.5711L9.93406 13.1566V7.05078C9.93406 6.45781 10.4153 5.97656 11.0083 5.97656C11.6012 5.97656 12.0825 6.45781 12.0825 7.05078V13.1609L13.668 11.5754C14.0805 11.1543 14.7594 11.1543 15.1805 11.5711Z"
                fill="#37AB45" />
        </g>
    </g>
    <defs>
        <clipPath id="clip0_194_4193">
            <rect width="22" height="22" rx="11" transform="matrix(0 1 1 0 -0.00012207 0)" fill="white" />
        </clipPath>
    </defs>
</svg>