<svg width="28" height="28" viewBox="0 0 28 28" fill="none" xmlns="http://www.w3.org/2000/svg">
<g clip-path="url(#clip0_298_1445)">
<path d="M13.9132 3.46155C14.5319 3.46165 15.1252 3.70747 15.5627 4.14497C16.0002 4.58247 16.2461 5.17582 16.2461 5.79453C17.5862 6.42798 18.7286 7.4142 19.5509 8.64746C20.3732 9.88072 20.8443 11.3145 20.9138 12.7951L20.9121 16.2946C20.9999 17.02 21.2568 17.7147 21.6622 18.3227C22.0676 18.9306 22.61 19.4349 23.2459 19.7949L4.58124 19.7957C5.21687 19.4357 5.75911 18.9315 6.16432 18.3237C6.56952 17.7159 6.82638 17.0214 6.91422 16.2962L6.91257 12.7951C6.98204 11.3145 7.45316 9.88071 8.27543 8.64746C9.0977 7.4142 10.2401 6.42798 11.5802 5.79453C11.5803 5.17582 11.8261 4.58247 12.2636 4.14497C12.7011 3.70747 13.2944 3.46165 13.9132 3.46155V3.46155Z" stroke="white" stroke-width="2" stroke-linecap="round" stroke-linejoin="round"/>
<path d="M10.4128 19.7948L10.4128 20.9613C10.4128 21.8897 10.7816 22.78 11.438 23.4364C12.0944 24.0929 12.9848 24.4616 13.9131 24.4616C14.8414 24.4616 15.7317 24.0929 16.3882 23.4364C17.0446 22.78 17.4134 21.8897 17.4134 20.9613V19.7948" stroke="white" stroke-width="2" stroke-linecap="round" stroke-linejoin="round"/>
<circle cx="24" cy="4" r="4" fill="#D5351E"/>
</g>
<defs>
<clipPath id="clip0_298_1445">
<rect width="28" height="28" fill="white"/>
</clipPath>
</defs>
</svg>
