<svg width="21" height="21" viewBox="0 0 21 21" fill="none" xmlns="http://www.w3.org/2000/svg">
    <path
        d="M9.00911 3V4.66667H4.84245V16.3333H16.5091V12.1667H18.1758V17.1667C18.1758 17.3877 18.088 17.5996 17.9317 17.7559C17.7754 17.9122 17.5635 18 17.3424 18H4.00911C3.7881 18 3.57614 17.9122 3.41986 17.7559C3.26358 17.5996 3.17578 17.3877 3.17578 17.1667V3.83333C3.17578 3.61232 3.26358 3.40036 3.41986 3.24408C3.57614 3.0878 3.7881 3 4.00911 3H9.00911ZM15.3308 4.66667H11.5091V3H18.1758V9.66667H16.5091V5.845L10.6758 11.6783L9.49745 10.5L15.3308 4.66667Z"
        fill="#37AB45" />
</svg>