<svg viewBox="0 0 23 24" fill="white" xmlns="http://www.w3.org/2000/svg" width="18">
    <path
        d="m22.715 9.752-2.57-.767a8.927 8.927 0 0 0-.73-1.786l1.26-2.354a.467.467 0 0 0-.085-.552l-1.834-1.84a.469.469 0 0 0-.553-.084l-2.34 1.25a8.922 8.922 0 0 0-1.812-.767L13.284.314A.468.468 0 0 0 12.831 0h-2.594a.469.469 0 0 0-.445.33l-.767 2.53a8.93 8.93 0 0 0-1.827.766L4.896 2.384a.468.468 0 0 0-.552.085L2.479 4.286a.468.468 0 0 0-.085.552l1.244 2.3a8.911 8.911 0 0 0-.768 1.817L.33 9.72a.468.468 0 0 0-.33.445v2.591a.467.467 0 0 0 .33.445l2.555.767c.19.621.448 1.22.768 1.786l-1.259 2.407a.467.467 0 0 0 .085.552l1.834 1.833a.469.469 0 0 0 .552.084l2.372-1.265a8.946 8.946 0 0 0 1.765.72l.767 2.584a.467.467 0 0 0 .445.33h2.594a.469.469 0 0 0 .445-.33l.768-2.591a8.934 8.934 0 0 0 1.75-.72l2.386 1.272a.468.468 0 0 0 .553-.084l1.834-1.833a.467.467 0 0 0 .084-.552l-1.274-2.376c.305-.558.55-1.146.73-1.756l2.585-.767a.468.468 0 0 0 .33-.444v-2.615a.468.468 0 0 0-.284-.452Zm-11.18 5.965a4.224 4.224 0 0 1-3.9-2.603 4.213 4.213 0 0 1 3.076-5.75 4.225 4.225 0 0 1 4.333 1.793 4.214 4.214 0 0 1-.525 5.325 4.223 4.223 0 0 1-2.985 1.235Z">
    </path>
</svg>