<svg width="287" height="189" viewBox="0 0 287 189" fill="none" xmlns="http://www.w3.org/2000/svg">
    <path d="M17 166.5H277" stroke="#CCCCCC" stroke-dasharray="4 2" />
    <path d="M17 126.75H277" stroke="#CCCCCC" stroke-dasharray="4 2" />
    <path d="M17 87H277" stroke="#CCCCCC" stroke-dasharray="4 2" />
    <path d="M17 47.25H277" stroke="#CCCCCC" stroke-dasharray="4 2" />
    <path d="M17 7.5H277" stroke="#CCCCCC" stroke-dasharray="4 2" />
    <path d="M17.5 7V167" stroke="#CCCCCC" stroke-dasharray="4 2" />
    <path d="M60.6665 7V167" stroke="#CCCCCC" stroke-dasharray="4 2" />
    <path d="M103.833 7V167" stroke="#CCCCCC" stroke-dasharray="4 2" />
    <path d="M147 7V167" stroke="#CCCCCC" stroke-dasharray="4 2" />
    <path d="M190.167 7V167" stroke="#CCCCCC" stroke-dasharray="4 2" />
    <path d="M233.333 7V167" stroke="#CCCCCC" stroke-dasharray="4 2" />
    <path d="M276.5 7V167" stroke="#CCCCCC" stroke-dasharray="4 2" />
    <path opacity="0.5"
        d="M0.84 169.8V163.8L2.04 162.6H5.496L6.696 163.8V169.8L5.496 171H2.04L0.84 169.8ZM5.088 170.184L5.784 169.5V164.1L5.088 163.416H2.448L1.752 164.1V169.5L2.448 170.184H5.088Z"
        fill="white" />
    <path opacity="0.5"
        d="M0.648 129.642L5.04 125.298V124.254L4.44 123.666H2.112L1.512 124.254V124.89H0.6V123.954L1.704 122.85H4.848L5.952 123.954V125.562L1.56 129.906V130.434H6V131.25H0.648V129.642Z"
        fill="white" />
    <path opacity="0.5"
        d="M4.428 89.784H0.3V88.368L3.888 83.1H5.34V88.968H6.36V89.784H5.34V91.5H4.428V89.784ZM4.428 88.992V83.868H4.356L1.188 88.512V88.992H4.428Z"
        fill="white" />
    <path opacity="0.5"
        d="M0.84 50.646V44.454L1.944 43.35H5.304L6.408 44.454V45.39H5.496V44.754L4.896 44.166H2.352L1.752 44.754V47.586L2.724 46.614H5.352L6.456 47.718V50.646L5.352 51.75H1.944L0.84 50.646ZM4.944 50.934L5.544 50.346V48.018L4.944 47.43H2.964L1.752 48.642V50.346L2.352 50.934H4.944Z"
        fill="white" />
    <path opacity="0.5"
        d="M0.78 10.896V8.424L1.536 7.668L0.9 7.032V4.704L2.004 3.6H5.364L6.468 4.704V7.032L5.832 7.668L6.588 8.424V10.896L5.484 12H1.884L0.78 10.896ZM4.956 7.332L5.556 6.744V5.004L4.956 4.416H2.412L1.812 5.004V6.744L2.412 7.332H4.956ZM5.076 11.184L5.676 10.596V8.712L5.076 8.124H2.292L1.692 8.712V10.596L2.292 11.184H5.076Z"
        fill="white" />
    <path opacity="0.5"
        d="M12.7331 177.536L10.8491 178.508V177.668L12.8051 176.6H13.6451V185H12.7331V177.536ZM15.4499 183.896V180.128L16.5539 179.024H18.8579L19.8419 179.888V176.432H20.7299V185H19.8659V183.908L18.7739 185H16.5539L15.4499 183.896ZM18.5819 184.208L19.8419 182.948V180.824L18.6899 179.816H16.9379L16.3379 180.404V183.62L16.9379 184.208H18.5819Z"
        fill="white" />
    <path opacity="0.5"
        d="M53.9784 183.896V182.96H54.8904V183.596L55.4904 184.184H58.0344L58.6344 183.596V181.76L58.0584 181.184H55.6584V180.368H58.0584L58.6344 179.792V178.004L58.0344 177.416H55.5624L54.9624 178.004V178.64H54.0504V177.704L55.1544 176.6H58.4424L59.5464 177.704V180.056L58.8144 180.776L59.5464 181.508V183.896L58.4424 185H55.0824L53.9784 183.896ZM61.1076 183.896V180.128L62.2116 179.024H64.5156L65.4996 179.888V176.432H66.3876V185H65.5236V183.908L64.4316 185H62.2116L61.1076 183.896ZM64.2396 184.208L65.4996 182.948V180.824L64.3476 179.816H62.5956L61.9956 180.404V183.62L62.5956 184.208H64.2396Z"
        fill="white" />
    <path opacity="0.5"
        d="M97.4138 183.896V182.96H98.3258V183.596L98.9258 184.184H101.446L102.046 183.596V181.196L101.446 180.608H97.5338V176.6H102.79V177.404H98.4218V179.792H101.842L102.958 180.908V183.896L101.854 185H98.5178L97.4138 183.896ZM104.458 183.896V180.128L105.562 179.024H107.866L108.85 179.888V176.432H109.738V185H108.874V183.908L107.782 185H105.562L104.458 183.896ZM107.59 184.208L108.85 182.948V180.824L107.698 179.816H105.946L105.346 180.404V183.62L105.946 184.208H107.59Z"
        fill="white" />
    <path opacity="0.5"
        d="M145.615 177.872V177.416H141.271V176.6H146.527V177.932L143.239 185H142.279L145.615 177.872ZM147.788 183.896V180.128L148.892 179.024H151.196L152.18 179.888V176.432H153.068V185H152.204V183.908L151.112 185H148.892L147.788 183.896ZM150.92 184.208L152.18 182.948V180.824L151.028 179.816H149.276L148.676 180.404V183.62L149.276 184.208H150.92Z"
        fill="white" />
    <path opacity="0.5"
        d="M184.638 183.896V182.96H185.55V183.596L186.15 184.184H188.622L189.222 183.596V180.932L188.37 181.784H185.622L184.518 180.68V177.704L185.622 176.6H189.03L190.134 177.704V183.896L189.03 185H185.742L184.638 183.896ZM188.13 180.968L189.222 179.876V178.004L188.622 177.416H186.03L185.43 178.004V180.38L186.03 180.968H188.13ZM191.748 183.896V180.128L192.852 179.024H195.156L196.14 179.888V176.432H197.028V185H196.164V183.908L195.072 185H192.852L191.748 183.896ZM194.88 184.208L196.14 182.948V180.824L194.988 179.816H193.236L192.636 180.404V183.62L193.236 184.208H194.88Z"
        fill="white" />
    <path opacity="0.5"
        d="M228.249 177.536L226.365 178.508V177.668L228.321 176.6H229.161V185H228.249V177.536ZM232.55 177.536L230.666 178.508V177.668L232.622 176.6H233.462V185H232.55V177.536ZM235.267 183.896V180.128L236.371 179.024H238.675L239.659 179.888V176.432H240.547V185H239.683V183.908L238.591 185H236.371L235.267 183.896ZM238.399 184.208L239.659 182.948V180.824L238.507 179.816H236.755L236.155 180.404V183.62L236.755 184.208H238.399Z"
        fill="white" />
    <path opacity="0.5"
        d="M270.759 177.536L268.875 178.508V177.668L270.831 176.6H271.671V185H270.759V177.536ZM273.295 183.896V182.96H274.207V183.596L274.807 184.184H277.351L277.951 183.596V181.76L277.375 181.184H274.975V180.368H277.375L277.951 179.792V178.004L277.351 177.416H274.879L274.279 178.004V178.64H273.367V177.704L274.471 176.6H277.759L278.863 177.704V180.056L278.131 180.776L278.863 181.508V183.896L277.759 185H274.399L273.295 183.896ZM280.425 183.896V180.128L281.529 179.024H283.833L284.817 179.888V176.432H285.705V185H284.841V183.908L283.749 185H281.529L280.425 183.896ZM283.557 184.208L284.817 182.948V180.824L283.665 179.816H281.913L281.313 180.404V183.62L281.913 184.208H283.557Z"
        fill="white" />
    <path opacity="0.2" fill-rule="evenodd" clip-rule="evenodd"
        d="M17 151L60.3333 119L103.667 92.5L147 71L190.333 62L233.667 51L277 37V167H17V151Z" fill="#37AB45" />
    <path d="M17 151L60.3333 119L103.667 94L146.5 71L190.333 61.5L233.667 50.5L276.5 37.5" stroke="#37AB45"
        stroke-width="2" stroke-linejoin="round" />
    <circle cx="17" cy="151" r="3.5" fill="white" stroke="#37AB45" stroke-width="2" />
    <circle cx="60.3335" cy="119" r="3.5" fill="white" stroke="#37AB45" stroke-width="2" />
    <circle cx="103.667" cy="93.5" r="3.5" fill="white" stroke="#37AB45" stroke-width="2" />
    <circle cx="147" cy="70.5" r="3.5" fill="white" stroke="#37AB45" stroke-width="2" />
    <circle cx="190.333" cy="61.5" r="3.5" fill="white" stroke="#37AB45" stroke-width="2" />
    <circle cx="233.667" cy="50.5" r="3.5" fill="white" stroke="#37AB45" stroke-width="2" />
    <circle cx="277" cy="37.5" r="3.5" fill="white" stroke="#37AB45" stroke-width="2" />
</svg>