<svg width="18" height="17" viewBox="0 0 18 17" xmlns="http://www.w3.org/2000/svg">
    <path
        d="M5.95027 16.8879C12.4864 16.8879 16.0624 10.6977 16.0624 5.33119C16.0624 5.15717 16.059 4.97928 16.0522 4.80526C16.7479 4.23031 17.3482 3.51817 17.825 2.70228C17.1771 3.0317 16.4893 3.24685 15.7849 3.34037C16.5266 2.83231 17.0819 2.03417 17.3479 1.09392C16.6502 1.56647 15.8872 1.89981 15.0916 2.07966C14.5555 1.4287 13.8467 0.99768 13.0748 0.853251C12.3029 0.708822 11.5109 0.859026 10.8212 1.28064C10.1315 1.70225 9.58249 2.37179 9.25912 3.18574C8.93576 3.99969 8.85601 4.91272 9.03222 5.78366C7.61949 5.70263 6.23742 5.28322 4.97561 4.55259C3.71381 3.82197 2.60044 2.79644 1.70767 1.54251C1.25393 2.43658 1.11508 3.49457 1.31935 4.50143C1.52362 5.5083 2.05569 6.3885 2.80741 6.96315C2.24306 6.94267 1.69108 6.76902 1.19706 6.45654V6.50682C1.19656 7.44508 1.48038 8.35459 2.00028 9.08074C2.52018 9.8069 3.24408 10.3049 4.04892 10.49C3.52614 10.6535 2.97746 10.6773 2.44534 10.5596C2.67245 11.3665 3.11432 12.0723 3.70929 12.5784C4.30426 13.0845 5.02263 13.3657 5.76416 13.3827C4.50527 14.5128 2.95017 15.1258 1.34933 15.1229C1.06544 15.1224 0.781819 15.1025 0.5 15.0634C2.12628 16.2558 4.01808 16.8891 5.95027 16.8879Z" />
</svg>