<svg width="26" height="26" viewBox="0 0 26 26" fill="none" xmlns="http://www.w3.org/2000/svg">
<g clip-path="url(#clip0_298_1440)">
<path d="M18.4166 8.66659V5.41659C18.4166 5.12927 18.3025 4.85372 18.0993 4.65055C17.8961 4.44739 17.6206 4.33325 17.3333 4.33325H6.49992C5.92528 4.33325 5.37418 4.56153 4.96785 4.96785C4.56153 5.37418 4.33325 5.92528 4.33325 6.49992C4.33325 7.07455 4.56153 7.62565 4.96785 8.03198C5.37418 8.43831 5.92528 8.66659 6.49992 8.66659H19.4999C19.7872 8.66659 20.0628 8.78072 20.266 8.98389C20.4691 9.18705 20.5833 9.4626 20.5833 9.74992V12.9999M20.5833 17.3333V20.5833C20.5833 20.8706 20.4691 21.1461 20.266 21.3493C20.0628 21.5525 19.7872 21.6666 19.4999 21.6666H6.49992C5.92528 21.6666 5.37418 21.4383 4.96785 21.032C4.56153 20.6257 4.33325 20.0746 4.33325 19.4999V6.49992" stroke="white" stroke-width="2" stroke-linecap="round" stroke-linejoin="round"/>
<path d="M21.6666 13V17.3333H17.3333C16.7587 17.3333 16.2076 17.1051 15.8012 16.6987C15.3949 16.2924 15.1666 15.7413 15.1666 15.1667C15.1666 14.592 15.3949 14.0409 15.8012 13.6346C16.2076 13.2283 16.7587 13 17.3333 13H21.6666Z" stroke="white" stroke-width="2" stroke-linecap="round" stroke-linejoin="round"/>
</g>
<defs>
<clipPath id="clip0_298_1440">
<rect width="26" height="26" fill="white"/>
</clipPath>
</defs>
</svg>
