<svg width="20" height="20" viewBox="0 0 20 20" fill="none" xmlns="http://www.w3.org/2000/svg">
    <path
        d="M10 11.6667C9.77899 11.6667 9.56702 11.5789 9.41074 11.4226C9.25446 11.2663 9.16667 11.0543 9.16667 10.8333V8.33333C9.16667 8.11232 9.25446 7.90036 9.41074 7.74408C9.56702 7.5878 9.77899 7.5 10 7.5C10.221 7.5 10.433 7.5878 10.5893 7.74408C10.7455 7.90036 10.8333 8.11232 10.8333 8.33333V10.8333C10.8333 11.0543 10.7455 11.2663 10.5893 11.4226C10.433 11.5789 10.221 11.6667 10 11.6667ZM8.75 13.75C8.75 13.4185 8.8817 13.1005 9.11612 12.8661C9.35054 12.6317 9.66848 12.5 10 12.5C10.3315 12.5 10.6495 12.6317 10.8839 12.8661C11.1183 13.1005 11.25 13.4185 11.25 13.75C11.25 14.0815 11.1183 14.3995 10.8839 14.6339C10.6495 14.8683 10.3315 15 10 15C9.66848 15 9.35054 14.8683 9.11612 14.6339C8.8817 14.3995 8.75 14.0815 8.75 13.75Z"
        fill="#37AB45" />
    <path
        d="M8.52489 2.67999C9.14989 1.49249 10.8499 1.49249 11.4749 2.67999L18.4274 15.89C19.0116 17 18.2082 18.3333 16.9524 18.3333H3.04739C1.79322 18.3333 0.989057 17 1.57239 15.8908L8.52489 2.67999ZM16.9532 16.6667L9.99989 3.45583L3.04656 16.6667H16.9532Z"
        fill="#37AB45" />
</svg>