<svg width="60" height="60" viewBox="0 0 60 60" fill="none" xmlns="http://www.w3.org/2000/svg">
<path d="M30 55C25.0555 55 20.222 53.5338 16.1108 50.7868C11.9995 48.0397 8.79521 44.1353 6.90302 39.5671C5.01083 34.999 4.51575 29.9723 5.48038 25.1228C6.44501 20.2733 8.82603 15.8187 12.3223 12.3224C15.8187 8.82606 20.2732 6.44504 25.1227 5.48041C29.9723 4.51578 34.9989 5.01086 39.5671 6.90305C44.1352 8.79524 48.0397 11.9996 50.7867 16.1108C53.5338 20.222 55 25.0555 55 30C54.9921 36.628 52.3557 42.9823 47.669 47.669C42.9823 52.3557 36.628 54.9922 30 55ZM30 8.30299C25.7087 8.30299 21.5138 9.5755 17.9458 11.9596C14.3777 14.3437 11.5967 17.7323 9.95455 21.6969C8.31235 25.6616 7.88267 30.0241 8.71986 34.2329C9.55704 38.4417 11.6235 42.3078 14.6579 45.3422C17.6923 48.3765 21.5583 50.443 25.7671 51.2802C29.9759 52.1174 34.3385 51.6877 38.3031 50.0455C42.2677 48.4033 45.6563 45.6223 48.0404 42.0543C50.4245 38.4862 51.6971 34.2913 51.6971 30C51.6901 24.2478 49.4019 18.7331 45.3344 14.6656C41.2669 10.5982 35.7523 8.30998 30 8.30299Z" fill="#767DC1"/>
<path d="M30 55C23.5626 55 20.0912 42.1185 20.0912 30C20.0912 17.8815 23.5626 5.00004 30 5.00004C36.4374 5.00004 39.9088 17.8815 39.9088 30C39.9088 42.1185 36.4374 55 30 55ZM30 8.30299C27.3081 8.30299 23.3941 16.7552 23.3941 30C23.3941 36.0543 24.2199 41.7222 25.7062 45.9599C26.9382 49.4445 28.6194 51.6971 30 51.6971C32.6919 51.6971 36.6059 43.2449 36.6059 30C36.6059 23.9457 35.7802 18.2779 34.2938 14.0402C33.0486 10.5556 31.3674 8.30299 30 8.30299Z" fill="#767DC1"/>
<path d="M53.3485 31.6515H6.65148C6.21349 31.6515 5.79343 31.4775 5.48372 31.1678C5.17401 30.8581 5.00001 30.438 5.00001 30C5.00001 29.562 5.17401 29.142 5.48372 28.8323C5.79343 28.5226 6.21349 28.3486 6.65148 28.3486H53.3485C53.7865 28.3486 54.2066 28.5226 54.5163 28.8323C54.826 29.142 55 29.562 55 30C55 30.438 54.826 30.8581 54.5163 31.1678C54.2066 31.4775 53.7865 31.6515 53.3485 31.6515Z" fill="#767DC1"/>
<path d="M9.19145 21.0821C8.75345 21.0821 8.33339 20.9081 8.02368 20.5984C7.71397 20.2887 7.53998 19.8686 7.53998 19.4306C7.53998 18.9926 7.71397 18.5726 8.02368 18.2628C8.33339 17.9531 8.75345 17.7791 9.19145 17.7791H50.8416C51.2796 17.7791 51.6996 17.9531 52.0094 18.2628C52.3191 18.5726 52.4931 18.9926 52.4931 19.4306C52.4931 19.8686 52.3191 20.2887 52.0094 20.5984C51.6996 20.9081 51.2796 21.0821 50.8416 21.0821H9.19145Z" fill="#767DC1"/>
<path d="M9.19145 42.2209C8.75345 42.2209 8.33339 42.0469 8.02368 41.7372C7.71397 41.4275 7.53998 41.0075 7.53998 40.5695C7.53998 40.1315 7.71397 39.7114 8.02368 39.4017C8.33339 39.092 8.75345 38.918 9.19145 38.918H50.8416C51.2796 38.918 51.6996 39.092 52.0094 39.4017C52.3191 39.7114 52.4931 40.1315 52.4931 40.5695C52.4931 41.0075 52.3191 41.4275 52.0094 41.7372C51.6996 42.0469 51.2796 42.2209 50.8416 42.2209H9.19145Z" fill="#767DC1"/>
</svg>
