<svg width="18" height="19" viewBox="0 0 18 19" fill="none" xmlns="http://www.w3.org/2000/svg">
<g clip-path="url(#clip0_83_10563)">
<path d="M9 18.5C13.9705 18.5 18 14.4705 18 9.5C18 4.52942 13.9705 0.5 9 0.5C4.02942 0.5 0 4.52942 0 9.5C0 14.4705 4.02942 18.5 9 18.5Z" fill="#627EEA"/>
<path d="M9.01892 2.75V7.73938L13.236 9.62377L9.01892 2.75Z" fill="white" fill-opacity="0.602"/>
<path d="M9.01939 2.75L4.80176 9.62377L9.01939 7.73938V2.75Z" fill="white"/>
<path d="M9.01904 12.8562V16.2464L13.2389 10.4082L9.01904 12.8562Z" fill="white" fill-opacity="0.602"/>
<path d="M9.01939 16.2464V12.8556L4.80176 10.4082L9.01939 16.2464Z" fill="white"/>
<path d="M9.01904 12.0711L13.2361 9.6225L9.01904 7.73926V12.0711Z" fill="white" fill-opacity="0.2"/>
<path d="M4.80176 9.6225L9.01939 12.0711V7.73926L4.80176 9.6225Z" fill="white" fill-opacity="0.602"/>
</g>
<defs>
<clipPath id="clip0_83_10563">
<rect width="18" height="18" fill="white" transform="translate(0 0.5)"/>
</clipPath>
</defs>
</svg>
